<mxfile host="app.diagrams.net" modified="2024-07-09T02:52:17.318Z" agent="Mozilla/5.0 (Windows NT 10.0; Win64; x64; rv:127.0) Gecko/20100101 Firefox/127.0" etag="yqC1wUvWfl1ihrHe5cD1" version="24.6.4" type="github" pages="2">
  <diagram name="ページ1" id="-AZHssFs66LLgGf8EMIU">
    <mxGraphModel dx="979" dy="530" grid="1" gridSize="10" guides="1" tooltips="1" connect="1" arrows="1" fold="1" page="1" pageScale="1" pageWidth="827" pageHeight="1169" math="0" shadow="0">
      <root>
        <mxCell id="0" />
        <mxCell id="1" parent="0" />
        <mxCell id="hfXmXHoH8Cfm0-PpdlyW-30" value="" style="rounded=1;whiteSpace=wrap;html=1;dashed=1;dashPattern=1 1;fillColor=#ffe6cc;strokeColor=#d79b00;" parent="1" vertex="1">
          <mxGeometry x="360" y="2050" width="270" height="220" as="geometry" />
        </mxCell>
        <mxCell id="hfXmXHoH8Cfm0-PpdlyW-18" value="" style="rounded=1;whiteSpace=wrap;html=1;dashed=1;fillColor=#d5e8d4;strokeColor=#82b366;" parent="1" vertex="1">
          <mxGeometry x="630" y="1960" width="189.08" height="340" as="geometry" />
        </mxCell>
        <mxCell id="hfXmXHoH8Cfm0-PpdlyW-5" value="" style="rounded=1;whiteSpace=wrap;html=1;dashed=1;fillColor=#dae8fc;strokeColor=#6c8ebf;" parent="1" vertex="1">
          <mxGeometry x="40.44" y="1960" width="319.56" height="340" as="geometry" />
        </mxCell>
        <mxCell id="Fqr6R2lzom9mKmFI_5mK-61" value="" style="rounded=0;whiteSpace=wrap;html=1;dashed=1;" parent="1" vertex="1">
          <mxGeometry x="70" y="1580" width="190" height="190" as="geometry" />
        </mxCell>
        <mxCell id="Fqr6R2lzom9mKmFI_5mK-3" value="Cookie" style="shape=image;verticalLabelPosition=bottom;labelBackgroundColor=default;verticalAlign=top;aspect=fixed;imageAspect=0;image=https://blogger.googleusercontent.com/img/b/R29vZ2xl/AVvXsEga2MR-l2GyTnkgGAMRVWlw68d2NR_Ou8pPaJebb4WUiSX77ZQ_HPTZkH7PIbL8XVbjvzZq3PgmGlKUaWCBoiwEwY2HRMw9Dqna3pdVT2OK8rwSOvp7C6F6Hiuk04IjD5ALot_jFw_skO0w/s400/sweets_cookie.png;" parent="1" vertex="1">
          <mxGeometry x="38.11999999999999" y="537.3" width="120.88" height="110" as="geometry" />
        </mxCell>
        <mxCell id="Fqr6R2lzom9mKmFI_5mK-4" value="" style="shape=image;verticalLabelPosition=bottom;labelBackgroundColor=default;verticalAlign=top;aspect=fixed;imageAspect=0;image=https://blogger.googleusercontent.com/img/b/R29vZ2xl/AVvXsEgxA-0HQ4dRvhv9DRrg2JKSTOX4ReW2_82iHuZrpG8RsT2UqujHJ_xq7LnWzRzyxhqpGKUDwwMOHtBp9Pc4VIVICFALpFudKXBhSDTcByXy0Hcq1l8jtiGniUII0XOwnrOHVmVrso1wVOo/s400/internet_nidankai_ninsyou_man.png;flipH=0;" parent="1" vertex="1">
          <mxGeometry x="40" y="90" width="297.14" height="260" as="geometry" />
        </mxCell>
        <mxCell id="Fqr6R2lzom9mKmFI_5mK-5" value="&lt;font style=&quot;font-size: 20px;&quot;&gt;サイトに&lt;font color=&quot;#ff3333&quot;&gt;ログイン&lt;/font&gt;！&lt;br&gt;&lt;/font&gt;" style="shape=callout;whiteSpace=wrap;html=1;perimeter=calloutPerimeter;position2=0.15;rounded=1;shadow=1;fontSize=25;" parent="1" vertex="1">
          <mxGeometry x="250" y="40" width="240" height="110" as="geometry" />
        </mxCell>
        <mxCell id="Fqr6R2lzom9mKmFI_5mK-6" value="サイトにログインしたあとに、ページが切り替わる（＝ページ遷移）するたびにログアウトしてしまうと大変！&lt;br&gt;ページが切り替わるたびにログイン情報が消えてしまうと、たとえばAmazonや楽天などのECサイトなどで「カートに入れて決済」みたいなことができなくなる！" style="text;html=1;align=left;verticalAlign=top;whiteSpace=wrap;rounded=0;fontSize=20;" parent="1" vertex="1">
          <mxGeometry x="159" y="360" width="510" height="130" as="geometry" />
        </mxCell>
        <mxCell id="Fqr6R2lzom9mKmFI_5mK-7" value="&lt;b&gt;クッキー&lt;/b&gt;や&lt;b&gt;セッション&lt;/b&gt;は、&lt;br style=&quot;font-size: 18px;&quot;&gt;このような課題を解決&lt;br style=&quot;font-size: 18px;&quot;&gt;するためにある！" style="shape=callout;whiteSpace=wrap;html=1;perimeter=calloutPerimeter;position2=0.28;fontSize=18;rounded=1;shadow=1;" parent="1" vertex="1">
          <mxGeometry x="520" y="260" width="240" height="110" as="geometry" />
        </mxCell>
        <mxCell id="Fqr6R2lzom9mKmFI_5mK-8" value="セッション" style="shape=image;verticalLabelPosition=bottom;labelBackgroundColor=default;verticalAlign=top;aspect=fixed;imageAspect=0;image=https://blogger.googleusercontent.com/img/b/R29vZ2xl/AVvXsEi6EYU0YzS2Qek3SFlo9-1h5-soKiE1IcBTRX0e_bmYDu-yynJf6GNzzA5huRpP_43-UUApjx_G-3uF1lb0B59X6l0R3cBhXVXNdBUmV44Z7Fcpi8AaQTBGQvNd5zu7A5CA0akkZq-mvuT6/s500/band_school_girl.png;flipH=1;" parent="1" vertex="1">
          <mxGeometry x="23.44000000000001" y="870" width="154" height="150" as="geometry" />
        </mxCell>
        <mxCell id="Fqr6R2lzom9mKmFI_5mK-9" value="" style="shape=image;verticalLabelPosition=bottom;labelBackgroundColor=default;verticalAlign=top;aspect=fixed;imageAspect=0;image=data:image/png,iVBORw0KGgoAAAANSUhEUgAAAtgAAACQCAYAAAAyRxwtAAAgAElEQVR4Xu2dCZxeRZX2K+lOOqFJQgyEACESIewEZJNVzciOIruSaGRRgsPisOiHiCzih4wYcD5kHZFNQHYYQYRRkC2RVYgCahjCEiAE8oUkNCGh0z11bqea6upaTtWtd+t+3pmfQN+qU6f+Vbfquec9b90Bn/rUpzoFPiAAAiAAAiAAAiAAAiAAAlkIDIDAzsIRRkAABEAABEAABEAABECgIACBjYkAAiAAAiAAAiAAAiAAAhkJQGBnhAlTIAACIAACIAACIAACIACBjTkAAiAAAiAAAiAAAiAAAhkJQGBnhAlTIAACIAACIAACIAACIACBjTkAAiAAAiAAAiAAAiAAAhkJQGBnhAlTIAACIAACIAACIAACIACBjTkAAiAAAiAAAiAAAiAAAhkJQGBnhAlTIAACIAACIAACIAACIACBjTkAAiAAAiAAAiAAAiAAAhkJQGBnhAlTIAACIAACIAACIAACIACBjTkAAiAAAiAAAiAAAiAAAhkJQGBnhAlTIAACIAACIAACIAACIACBjTkAAiAAAiAAAiAAAiAAAhkJQGBnhAlTIAACIAACIAACIAACIACBjTkAAiAAAiAAAiAAAiAAAhkJQGBnhAlTIAACIAACIAACIAACIACBjTkAAiAAAiAAAiAAAiAAAhkJQGBnhAlTIAACIAACIAACIAACIACBjTkAAiAAAiAAAiAAAiAAAhkJQGBnhAlTIAACIAACIAACIAACIACBjTkAAiAAAiAAAiAAAiAAAhkJQGBnhAlTIAACIAACIAACIAACIACBjTkAAiAAAiAAAiAAAiAAAhkJQGBnhAlTIAACIAACIAACIAACIDCgU36AAQRAAARAAARAAARAAARAIA+BAU1jNoDAzsMSVkAABEAABEAABEAABEBAQGBjEoAACIAACIAACIAACIBARgIQ2BlhwhQIgAAIgAAIgAAIgAAIQGBjDoAACIAACIAACIAACIBARgIQ2BlhwhQIgAAIgAAIgAAIgAAIQGBjDoAACIAACIAACIAACIBARgIQ2BlhwhQIgAAIgAAIgAAIgAAIQGBjDoAACIAACIAACIAACIBARgIQ2BlhwhQIgAAIgAAIgAAIgAAIQGBjDoAACIAACIAACIAACIBARgIQ2BlhwhQIgAAIgAAIgAAIgAAIQGBjDoAACIAACIAACIAACIBARgIQ2BlhwhQIgAAIgAAIgAAIgAAIQGBjDoAACIAACIAACIAACIBARgIQ2BlhwhQIgAAIgAAIgAAIgAAIQGBjDoAACIAACIAACIAACIBARgIQ2BlhwhQIgAAIgAAIgAAIgAAIQGBjDoAACIAACIAACIAACIBARgIQ2BlhwhQIgAAIgAAIgAAIgAAIQGBjDoAACIAACIAACIAACIBARgIQ2BlhwhQIgAAIgAAIgAAIgAAIQGBjDoAACIAACIAACIAACIBARgIQ2BlhwhQIgAAIgAAIgAAIgAAIQGBjDoAACIAACIAACIAACIBARgIQ2BlhwhQIgAAIgAAIgAAIgAAIQGBjDoAACPQ5Au1vzRbNa03oc/2qtw6NHj26cGn+/Pl141o9+lQ3cOAICIBA1Qj0G4FNGy59sOlWbW5FNwRRFI2s4SpUY4xdbXDaVuuEDtZcMzh26m1gKrH+KSGr+loPIrvWPpnt6/OgHvjU27w0/dH55eJVZj2od17wr3IEcqzz2QR2ijOVWPRtuHXfUvys3BDyLNezzzl8Sxmf1HZT64XmFW8kK1eqWvdSag9ix7jMOJXZUFXdkI1Y/2LLK85mPdsDgO9hwGdHPTgoUfPmc4+JtbfcuducT+Ck1EmdO756Oh+XuLX1w3e/xIwVldWZcfvoYuviyrXrK6fatHGKZcS1Eeu3y27MmOht+upxbYbuObOPriAet71YZvVUPlcfy9rxPegSL32+u9aC0B7A4V5zga1PRn0ix0aaXRsR2Ynd3DngzDKcCZEqgji2bf5w+hHL2dVOWTsuIcDdXDl9pTIpLF22U21xF+wYpqm+cLnlLBfyNXQ9dU5w7PoEtm2N4YxRmYXa1qZL0JFA5m7uNmGaQ2C/9dZboqmpyTtdQvOfw9S2Xrg2VZdPZcZFbz9FYJubvLJHfTDHIde95xPYLn9sjColrskH0zaNXef8l63zOvZ+juFo6hLut1g5BH2Mn6F7Sc3NXN8GhHzjjEnIhrlPh8Qyx55ZxuRh85v7N1/7dSOwUzcvnzAzhTWVjVm8uQPHFc6pky+1Htf/lHIxfebYTxkXXQypNkJ2TL/1BSpU1+yHOb9i6+cU7rWcI6FFnjs2tns5lrFtToTmn+shX/c7RoxxefjWI5sNFSzw9cc2B30bhb55mcJOiZsQP9v1lHshZQ6b88MUu9QH9TGFv21/0PsS6oNLDBNH28clxPXNXtn0MU8V9IoFcbCJFtuDiGvuxHCOmT+c/nPHKDSfQte52kL3p5IC27Um2Pz0pUpx+h0qU2aNix1jnW/q3DfnoH4vuMY5RWCbXLIK7NiFVt8MuU+IMaIkNElibvxQWU5bnDK2dlLrhXxOvZ7TH46t0M3s2wh9i5LZdsgXnx+hzTiGdcgPn9CPaadaZUP94XJV5XxRWpdo1dsIzRfzWy9zAzU3+EpvquYDgC+CPWD0p3pFkENC0iUGbZuQbe6RP7qQpTKhKLaNKece4swVJS44PplzymTl8sklrs029X6utdZavVCbopba940vV2DYouDmeIZEtos1+aDb9z3ExK4xpk/Ujm1OK7uu6KZ6yFG8XA89HM0SI7RCawHnISuWGZU327V9E6Duy9B6bLNHf+N8c8GxzYlIV+pbHMXWJbD1/SNWH9i4ZRXYnAUyZmHlDJZrMqh2uDZSJnWs0AndfCk+uCJWMbZixi0nzxy2Ym2o8q5F0yXQYsc6hn9Z27EMyvgWWzfFt1Ad13WfAM8lsEPrTdmxDNX3CUyqa4oRFxPFMBTBVpuyzS/1N2pT/8SK65j1x9w/XHVXrFgR9IkjnFxzzSawfeJad0YJbbO8ngph+k/16Tqxtgl1JURVO6qsOW56GzYxq5e3PWi6RLmqFzP2trUkh8BW4kwXaTbBpv9NfYvg2xe4a5+ak7a+cB+QYlI6bD6XFdiudY7zUBa6n30CW38QCrGi+8d2L5Dv3HvRN19D+5BtPph1ai6wOdGk0MQOCdfQgIfsc6+HBiR03dVOar2Q3zF2uQIl1CZ3g6yUnZAI484V29OtzWeuPVU3ZkzK1InhW6ZsbH+4Dz42/q7Is/lQFVovzP6mfrumt+MTutSeLyqvXwtFf/SIqNlv894zNzBbigjVCaVWkH9KEMYILNvDQsz9UuYedLHhiG5iYgpsTrRc8SdWJAz0OmaesSmwdcHsioSbotr13/oYhQSTLrRqJa7JB+qL7T5Rc8iMVJtR9pDAVmNhy/dOnRPmOpISlQ0Jbd8DoN6+HrHlrsmhh8uYfYGzhpkPROaDu9me6z6I8YvuBds6FLLBXa/7vMDWFwgbtJxwfW1xJ7XLx5iNJzQ5uMLMJqrL9MPc4HP1ieuTT1yH5onJlNsmdyxi2w+NIce/3HM/ByOX36H+hMSkLr5DAtsm1EOsQt8kqeumndA9YHs4CM0pFcUOMdEFtsq3Nv9mCmybqA31IWZNC92judYQ8+EnlBZkEwhl0yRIRLuEo+9ecgldUxxyxiq3wA7dJ7a54Iv4qvKu+8cX5YyJYKcK7JgodYrApv77RHYlBbZrT/LNmdA6rcbTTOMKPRzq8yZGWMc88IfW1dCea+PV7wU2F2rZctyJF7MZVcon3yZXph+pm6NPdOk2Qxt9aPPm9o1bLmZ8Qr65bHHEYowfOcvGcsrRF5+osIkql5Dh2nFtQqkPCuY9YgoMM6XDljJgy+u1ReFzCOzYB0PfPHelq7iOkAvd79x7xvcgYuuf8tMmsGM3dBLZoTrmXPIJbPKXG10zxY7Oy/wmREWETaYqyhjqA2ddsc1tqqfbdt1XvpQasqEeZDh++L6xso29btMnos00HtMXV7oDlXOJ7FoIbPKH+5Dn462PmS2lSf3NnFuu9Be9rRzzkbt++PqYLLBtT6qxC15oAw5d5y7uHDucGy+1TJn2y9T1+ZtqN7WeTThw5wunzVCZ0CbKnUsx5bjzhSP8Um72EBOufynlYh8YQr6GrisfucLYJ4DN/prRTV8brvmhr5ecee+ar/R3/evwGIFtW7O9m8PK3GpT4FAd6oNKk6D/Dh0HZqZUmCdnmH6EjgzkCgubOLHV9c0vl8DVc31zCk2TBVdgUz2XsPD1L5SLrfyp1Mkhyr4pXs20BlXOdv+EBLZtnttEnY1f7H2jONly7ENpD+Qn58ewrvXOZKn+OyVFxLfX5RDYZF+Nm/lNjmv/qHSaEmev4+5FZCtJYLsWKN8NwHFcL8PtRO5ysX6GynP9c9kpW99mt4zNMnXNG5Zri1uOwzBmI+XY8y1CobnhqsvtL6ccpwzHz5gyepuc9l2LqbmxxQhTG9uQMLZtWrpvvo3W51ssD986aApsc1z0Ez2UWLCNgb5RuX4s5DtFRGfBeTmNuTGSwHbZoD7ZIoHmyyF05qqPtg049cxbn4jRHxiUr74zm2Pun9A+6BMZLoEYundsD0sqiq3POVOw0X/niha6IpN66gtnPQndx75xde2Xod8rqHq+KLUrImu2qXL0zb9zj1Gkei6WKufYF6UPzT91XZ8zep3QXPPdC/qaYNqxzXv9R5G52uXcq9y2ogW2a4Kbmwg5yXXCNalD9VNvNg7AHGVi/EtlEOtnLX2ytc3xh1MmdNPqOXy+fFlOOe7iFBqbsmLfxdNsN3QfhfyMuZ5jjG2C2yXCTd9U+7b1yLYJ2MSvTVSbYo67vnFFvYuxrb4ewVaC2ox62X7saG6MeqSN6nN/5OiyQ393ifJQrqrZtuurdiXMXfcgR3y6xiRm7toEKfWf/M5xv/nmO6ePaoy4a6cvr9b89kEfZ/r3SgrsUF45d903eXC5uB7cXPn3vqg4p0193G0imfsA5RPYxIK7Lrnmofq77cFDsS5zH9hY2dYQ/RsB1wuJYvYvTlnOOCo7FRHYtgHkOB6zKMR0sqw/Mb7rfeBuwtzNNcWPnP6kcgyJo9BYhq7HLLJcUetbWMoIbGWXMze4Alrvv+vhocxix5l3ZcdYb8MndMq0E5pHujhX42O2ZxPkMfOPw9LFgtrWT0fQI6cxAlvZUe3oEeyYvGLTji68QnmTNkGtNkvfcXSuKLFLCLl84tyHvvniE9g0RqHTH0Jzxrc+cAV2aL6bPrjsmg9fOc+91n2wicIyosnV/9Aa4rr/dP9ckWpflDo0Hja/zG+ayDdfGota52MEdsgv21x13W+Ki346R+zewxHX5JM+Bq7IfOx6yykfw6tiAjtFjKVOfA6UFH+4dnURa+ZrpthQdWInputG4Ig5rp/cycXZwEKiinud6xNnDvjmYEic2xiWEbwx90OZDZs79ma53GNs3keu8Q+Ng+u+4dYzRbS6f8z6nHnHKRMaO/1bFdtxZErw6CLbl3OpC2Ozbkhg62NuO8EhNoJtHlVHLJTQ9p33HJMrG5MfHTOnbQ8YauN3jWkolYizVvsEtv5jvpT9w2Zb9ansC4VC64xNTOYU2OZ6yhlr/f4l//TTRmznv4fud9t13zrPjWLra6f6d86JQJz55tIVNL9cUWU9PY3TRmgsXA9f+rn/Ifau+ae3HZqjMdqM7EYLbCVSTEdSbmZzUpSxwQVT6XKpg1xpv3LZj+lfbNnQjei7EbhzJ8anXMz6sp0YnjEPDOZY5xjfGF9tYt+3OfrmbmgB96UsmeLejKLZ5pae+qFHdpQfto1XF7N6ZJzsu05x4EZSyUYof9K1cflSF2x9j/Epx33pEtmm7VBEO2ZuhvoYY8v0M0Zg50oNUT7YBDZdC50AEnqg5qw7tvXGxVEdr6h/4xIrvHTuvrUtVmDbWNLffL+nSL0PbOuaegiLnRuhOeuKyJd9oEzpe8hX3WaSwE5xCnVAAARAoFEImBEV36Ias+CW7b9PXPnSREIbr+9sWddmGRJ6el99ZU0Rz61n8yvGp7Jj4WLqsxsS2hyfKt1Hl8iuVGoI9TmU0sDhUq0ynKMVc/mSyiW1Xorf1WjL9fAVK+RT+lemDgR2GXqoCwIgAAJVJBASV6GcTddGVUuB7dskQ/010ceWzzV0LlHqsl9GaFe6jxDYuWZFeTup4jW1XorHsd8yxbbh6ovvwTy2jUqVh8CuFFnYBQEQAIHMBELiyveVsm+jgsAuP1Cu49Vyi+zQHCjTk9CDgu2ouDLtqbrVFIQ5/K2WjTJcQg/bufpQK4Fd79Fr4guBnWuWwQ4IgAAIVJhASFylCGzaqEJ2bd2KqRNTVm8rth63fEhI6j7ERJvVizN8b+VLte0So/T3XDm2IS4Q2BW+wQ3zuQS2miOVEqVl/AwRraTtUNtlr0NglyWI+iAAAiBQJQIcAemKXNn+Tm5DYPsHL0ZgK0v6mwVDYjvWPmcOpEzHkLhWNishsl0iitjF8knpez3WKZsa4XvYdvWX6qTwrqQIrqTtSo87BHalCcM+CIAACGQiwBFXro0VArupexS4YrJsdJgT0Y4VrJw5EDvdXDZjXtsd26Ze3iewVbkU4VfGp1rW9Y2xeigO+ZciTFWdWNYuf3NEzFP6EWJTresQ2NUijXZAAARAoCQBjriybUi2E0b0jZpj13Q9pk5MWZ/wCglebjvVEth6X3yvwOaKJirH7WPMVPPZrIbIDs1Z20OIXidWEMawqUXZHGMcK0zN8jFMIbDtswQCuxZ3D9oEARAAgQQC3I3XjFbbXkLTnwW2Qq+ncoSGI0c0zieym5oGhlworq+xxhq9ys2bN6/4W4qPPntkc8yYMVa/3nnnHZa/nEKmD9QfvV3VP72Pep2cvnD85ZUZwCtmlMoRvSaTZQU22eCKbO66lAKkkuI9xZ+YOhDYMbRQFgRAAARqSIC7kfkitLbzjLl29a7H1Ikpm9qGTVTQ33w/AKy2wO7pY6fo7OyUb1IRggQkVxxXW2CTX642uT6Hbhmbfb2O+QBhE+S6+A61V9Xrhc4Oi23XPavfr7F9tInsSpwfn3p/c8eB2w+uvWqVg8CuFmm0AwIgAAIlCXA3Mo7A1jdart1U8ZtiP0Uwp7ZTcliiqo8evYbo7OgUzc1N4oC9dxe7fmYbMXbMmqJ1aEshuNvb26PsoXB9EGhubhYDBgwQbUuXiTmvzxV/eHiGuOH2u+R4dnQ52K2xe4rtULpSmRf8cIVpjqi5+a2ZGpUcD2GNGsWGwK6PexNegAAIgECQQIyAjNk0Y+wqJ2PqxJRNFfEpgjwI3FGA+sP9+vxjE13R6p132F4cf+QUscXGE0T7Rx+JlpYW0draKoYOHSoGDx4sBg0alOoW6tWQwEdyLJcvXy6WLl0q2traxLJly0SzHMunZz0vzrvocvHCP2Z3qeyVEe0YYU3dShGqHGEas0748JIdM9qe6retHZuf8fdgdScIBHZ1eaM1EAABEEgmECNUYzbOGLsQ2B/nt/I3+E4xtGWIuOgnZ4qdt92qiFSPGDFCDBs2TEaymwukFP3Ep/EJFGk/8kPfRCxZskQsWrSoGNsnZ70gfvCTC8SHy5Z3jfdAGm/7mOcUqj5hyklLiRX2etpVbN2QgLdd59+D1Z9bENjVZ44WQQAEQCCJQKwQ5n5tG2uXnI+pE1NWBxNbL7Z8yiCYbQQ3eCm4Ju2yo7jg7O+LwTIthIT18OHDC2ENUZ0yAo1TR6X8LF68uBDa7TI16KzpvxCPPv5UIa5NkZ1TWPsehH0Ey6SkkF0S2DmFdWg90K8H78UqTx0I7CoDR3MgAAIgkEogVkBCYOd7y6HroUKNpXVzl+J62tTDxMnHHFEUo/GgFJCBA3knhqTOE9SrLwIdHR2CUkjUHLn81zeLa2+5s1tkv/VW1ykw5ieXUA2lo6h2y/ygslrEuX2pB7ENgV2tWYF2QAAEQKAkgViBrZoLfW2bYjemTkxZHVFsvdjyscPB3dzJbqcUVVMP2V98a/JBRW71qFGjin/i038JUI72ggULilzt6Zf9Slx2zQ2FyFZ52YpMLmGt7HHnbdnodbVGltsf3Z9aCG4I7GrNCLQDAiAAAiUJpApICOy0H4m5hiu0wXd2dohdtt9W/PtpJxapIBDXJSd+H6quRDblaH/rlNPFA4/M6BbZTU1d+fiV+ITmbKOIaz1oYHsJko1dLcQ1+QGBXYmZDJsgAAIgUAECqQI75EqK3Zg6MWV1X2PrxZYPcXFd978CvVO0DBos7r7uMvnDxsFizTXXROQ6FXQfrUci++2335ZH+n0odtrnELF02YcrRXZlf+hqm7eVyPuu1rD578OPvajVwwMEdrVmAtoBARAAgUwEbC9IyfG1cordmDoxZXVUsfViy6cOi96OiqZRasj0s04V22y+sVhnnXWKY/jwAQGTAB3j98Ybb4iZz8wS3zzx1JUCu4h7VhRW6OVKOdaRinbAYtzWJ9vba6vdNwjsas8EtAcCIAACJQlUSkCm2I2pE1O2EQS28vHjfnWKTTecIO686uLiCL6RI0fiB40l53pfrU4/fFy4cGFxlN9BRx0vXvinOie7sgLbdV9VW3xWYlzr7eEBArsSowybIAACIAAC/Y+APDXkmot+KrbbcnMxduxYvDSm/82AqB7TySJz584VT8mX0Uw99hQ6DL3XDx6jDKJwLwKh359UEhkEdiXpwjYIgAAIgEA/ISBff97UJJ574LdiNXnWNUWvcc51Pxn6xG7SOdkUxX5PnpG95aR9RfsKeq06iezqRbETXUc1BgEIbAYkFAEBEAABEAABP4FOeSzfAeLkaYeL8ePHI3qN6cIiQFHsOXPmiOmXXyWuvfmOlQKbqkJkswDWcSEI7DoeHLgGAiAAAiDQIARkNPLaX5wvtt9qCzFu3DhErxtk2GrtJkWxX3vtNfHEs3+VaSIn0zvUkSZS60HJ1D4EdiaQMAMCIAACINCPCUih9MhdN4r1xo0tzr1Gekg/ngsRXSeBTS+feeW1uWLX/b6yMj0EaSIRCOu2KAR23Q4NHAMBEAABEGgMAp3y1Y1CPHP/7UX0urW1tTHchpd1QaCtra2IYm+9+/4Q2HUxInmcgMDOwxFWQAAEQAAE+i2BLoH99H23iQkTJiD/ut/Og7SOUx727NmzxTZ7HACBnYawLmtBYNflsMApEAABEACBxiHQJbAfv+cmMXHixMZxG57WDYFZs2aJz8i3OnadIIIUkboZmBKOQGCXgIeqIAACIAACIFCoawhsTIQSBHoLbDKGk0RKIK15VQjsmg8BHAABN4Hha40Ti996DYhAAATqmgAEdl0PTwM4B4HdAIMU6SIEdiSwvlR8472/Ksbvsq8YNGQV8easmeKpa37W8N3b6diziz7MuPjMhu4L9WOTvScXfXh//lvipiM/29D9gfMg0LcJ1LfAnjJlihX/9ddf37eHpYF61yWwD+46pq9IESHnEcFuoCHs5WoWgd3+1uxuw81rTWgoHuS78ln9u+qP+fdQx3RbZlnftZDdSl0//PYXRNPgQd3m/3juceKVGfd1/zcJcDpCKPRZNPdlMe9vT4aKOa+vt9OeYqdjfyRm//et4smrz0+yc8iVD4qhIz5RPCyQz7/7/pRePlE0+POnXChm3XZFj34mNZix0udOni7W3X6SFNJviDuP/5IgPw/5zz+KjhUrxPtvzxXD1/6kmP3gXeLh6fJVuis/VObTk08Qyz94X8y89Kxe3ozZfDux0Z7yyCf5eUirZ3N7p389Wwwa2hosl7HLVTFVj/dcVToe0QgYRcDyFq2twHYJ6FDvbr75ZkE/sMOn9gQgsGs/Brk9KC2wzQWau2CHyoWu5wShC2sS1ZXoU7X6s93h3xWL54VTCj4xfhOx6b5TxKI3XxV/u+OXYudjzxHz//mc+O1J8glafkhc7/TtH8mHaf8TNMnvjz5oE9cdulXSkJC4/twpFDlvEs1S7F/5xbgHNBKS9PnCDy4WQ4aNFCuWf1Q8NCxbskj8+rBte/i0z7nXidGbblucT/v6kw+KJ678SV2kX5DAXn/Sft0cickXTvuFaFswX7z65/8uxkkfGzU+Oxx9hmgaZGdG47fjMWeJgfLVzT6mxG/f824oxPxHHy4VT1397+Lv9/4maSxzVip7v9jqc2zqwQLVH7Um+PpnCyxw2svJLMWWGUzg2OD0i1NGtRVTluNfbcrUVmBTn0Mim8S07WMKbGXHFd0OXdfbyBU5j2nT1scQG6pT62g+BHZt7txKtlpKYLsWRs6CGSoTul4JKL7+mO3Fbqgp/XFt9q6+66KKw4fEcacUVsvbloghw1cTr8y8X/zx/x5bVFUij2Nn4Wuzxe3/ug+naI8yEw+eJqOwx0kR3yyamptlxPkJcc+p9q8yqeIRd/69+Mbs7/ffJGbKFBBKo9hoj69KYbpEPHXtz4qHBPp8tPQDKRY/EDd+fcce7W2yzxSx3ZHfE80U5Zb9Xvb+IplKckbNo9kksDeQAnu59qAy+frHi4g8fUj8/mn6yWLOw/d094fGeoejfygF9mCrgA5d18F86YJbxRobyJMP5MMUcXn54btrGs0us66ofoXuZdc3baGH6xjhnnLPh24i25qg14n5BjHVPw7bWNux5UOcqn+99gKb+qyEpBLThx56aIFC/TeJaV1smqJSv+aKbutthKLfLmEbGzmPadM29hyBHetT7jkGgZ2baO3tJQvs0ILoi4yE6hIWTpkc+HwbFiea7apvbnSx/dHLm/9O/bZtpCoaGculs6OziHrfevRusVWTylN6w/ZHfV+sNXEHMbC5pYjCvvSnnikQpmES/J//7oVioCz7zHUXimdvuqSIsu847Uxpo1k8Lf82ZovPyPSQDjHzkjO9kel9ZMR2jIxkk6Bc8PIL4q4TvpzUj9hK+190t4w3840AABU0SURBVHyQGdmr2qBVWsVgmaLR2dEhPlj4bnGdovAUkafPe6//j7jt23v1qBcS0KHrNr6fPemnXSk2cj7cOm23qkX3Q6KRIyBjbPjs1ZPADj1gx64pqt++tZkzp11rk75ux/qmyut95j4E2XyObZ/Tb3+Z+hPYSvya0V9ThOsi2XdN9T9W7A6Sa7b66II/VZzTQ4EpmDnRZ90P8kf5Qv+uP4CUnwtpFiCw07jVc60kgR2zeHEiPpzNMSYyEwOcI2R9Gwp3cS/DjMMwps9UliKkQ2SEdNniheL6ydv3qE5itkVGtLmfYWuuy/6BJKWwTNj9YCmKB4nBq6xaRGcfv+LH4sXf+X9sQ9Hurb/2b0WkW095OFTmXg9bc2yP6K/p926nXyb/1NkjJYT6uMO0M8TDF5wi3nxuZq/+b/Av+4s//PjbXASsckfd/fFvFVgVCq/tKTghAR26Tv3fRvJ8/rfX9EgJ2e+C22V6zUJx35lH9XKROL70wB0VjfjH3Cchhim2fALbZS/27yG/OddT+kZ2U+qFghAcf1WZ0FrPWec5feCUifE7XLa2ApsToXX1QRenNvHMsc0RuJzouO6jrV0zMq+X5/igypsPEvT3kOAPz4FyJSCwy/Grx9psgW2LLHAXSzNiwln8OGVyAOUIbLUx0T9DG4Bpz+cjN80kt8BWP6Ij8fbKjPvFA+d2pYWoz1eveUysMmo0+/fLZGfZksXi+sO2cXZXCWvK6W4ePFQ0tQwpxP1vTz6YFSnd68fXiHW22qmXkNbTYh67+Ie98odVqgtFZUnM/+3OK70PA8Rm759cL1o/saaYcekZWfORicEqo8b0YrT6+puK1cZtIFbIr2/nPHpvr+sLX/2nmHXr5T3+HhLQoesUTR+53oYy/6RDvCdTfGZe/iPvD1XJ980POEp8KMfMTL3JcR/qAix0j9naC61F3PvQZsf1TZayWSbSmsIudW1Mraf7mMOGq89c27nLpYxB7zqNK7D11IhUgc1Jr4gV2MSYos56pFlxJzGtItIxUXGqz4nS55kTcVYgsON4NUJptsCmznAXNrPjvqhQ2cW2LGRd/Cs/zQcCbt99fLjsYsQ016bJiMTSZvsfJaPBTeLeH0ztFcEl8TVq/EZstCSwF8sfS+opJiRUN9zjULH2xB2lkJtQCOOWVYcXOcN0MAm9rOrdiPSMqbc+V6Qv2OpMvUVeG7qKaHt3nvjN4bv28nvPc64S62y5U3H8UceKdtEmT+u4xZEOQxHcEeuuL1M2VhEv3HtDketNn6/d9IxMnWgvfkTJ/VDqxwfSJzO9g+rTGPzjvpuKhwtbDrZ+3dZeSEBTxH+rw44Tg+SDjO1HjvTgsfNx54iWYfKbCjkYHR+1i2eu/3kvIU9tF+k58vSVgTJtZcXyZeKaAzcvXPrS9Fvkg8GE4seZ3A+lvgwa0iquPmCzXlVsD6e2VCuqGBLhqVHllLWqmmtY6j2fWo+zltv6HxqfMsy4feGW485df7n6ENiuHzLafLcJU1f6hyvNQ7cbigCnpHWQfbOemc7BTVkJReJjIuB55kxPKxDYlaBaW5tRAjuXq5yFj1Mmhz++CHbo+D69fT3yxY1MhzYvup5DtJvtkFilH/qFos4hvl0ngEyXEekW8fSvfy6e/c3FRRWVC75YHjE3eJXhxRFwJObph4ezH7xTfHL73USrjJBzBTa1M+l7Py9yrWdcclavdBIVXR0wsEkezzfZGoklwb/XudeLVVcfI4XyCnHVlzfu1T06rm5DSl+RDwGL33xFPjDs3l2G0jvUg0GIi7ruSu9Q/lI58sMU2CRcV5c/Onxv7kvijmP3tTYXEthkc/wue8lTRAaJX+0nI9WOz3ZHfE9sISPTYuBAMfeph8T9Z32zR0ni9qXpt4nB8uGITl958PwTu39sSd900DimfGyi33YPmRHlkHAzH45dNrlRZ/Oh29ZXrq0UTpw1gmM313qay47LZ459ThllP6Ysh6O7TP0IbFvE1/Rbz2MORbDNulxBq9dzpXvEinJbrjTHH5dIJx91XrUU2RDY5e7AeqwNga2dg60vyvTvtq+G6e+2TVwvGxOF1idFbL2UzWO30y8V6243qTi+bcZlZ4sX7/518rw86NLfF9He9mUfimsP2qKHHSW+OmQKwvvzXpepGVd1C2N1jSuwVXoIpXjYhDGJwIMuvV8MkCL+He2oQVvHSFB+tLSt+2FAlSFBut5OexSpK8vlEX//ddKBPVJXus6KXjWa1QcL5vU425t8PfCSe4tI/vvvzBM3HbFrL4FN0edtp55cHJH4ooyi216aUwhs+QNPMyddOUj50uO2/5fioSZ0hCL5tOO3zxL3nXFkj/7Rg81njj5d5uqPFM2DWnr5Qn6O/KRbvPtgPSRPRQnNfXWvhUS1S0ylPJy6ItgpEfGU+zM0wcrYLFM3dixiBXTMg1RMP2LKhtj7r9dWYJNvZsqEz18lqlUd8weRdJ2Ep01wcgStT5RzUzpCkWtqg5N2YpZRvtl+3EnXaiWyIbDL3YH1WDtJYJuLoa9jvmhuygZYSYgpizEnAs7dnCotsLsip9+U4nqgWCLTJG4+8vPJOPWo8Yu//ziVQhkk0baRFIFP/uqnvdqIEdiFeL7s/uKBwDwLWje8/3/cKUatv5noaG8XV+2/CbtfFG3/7Enny/SV1YpI+4qPlsmo8T6svHB2I1pBik6PWn9zGTBuEr//4TeK9BxbisiBl/xOjJTpFx0rOsRtx+zeyx+V4jFApr2Y531Tc5TS0tI6TNC3CLccNSna1SKav9shxY8s6XzyOZZc/Wijjgquea+KhwS2K2qt1zPLqHuS/mkrp7vqetAO3dcp60mIaVmbZeqXqav6xbERKhO6rjOMKRti779ee4Gt/HMJSvPUDFv02CZqXedkc/KuySebCDZPNrGxjfWFbLh8pWuhk0JSHhzKzZmetSGwc9KsD1vJAju06fk2H7XomeLUhsTXTtnFM+ZBwfTNTB/Jsdm6omeuqRLT/yJCu/OeRTrHchnBveuE/ZJFJImvjfb8qhgghTq9fTBWqMcI7CLiLiOxA+T/KUFq41GcMjLlO8Uxfg8Yb6R08Sty0b/8jeLHj5Qy0yYjyveeNiWZS+iWpqjyutt+rkh10QWrTWCrB4sB8sFi8Rtz5LF5e4TMd1+nfm3yxa8VOet66g7HAD1wbH/EqWLEuPVFc8vQ4oeuf7/vN1V99bzroZXjv1nGJqx9dnyRale9RkgRySE6Y9cnG6+YNStm3fONmyuPn+xz9jHevKsfgU3+6uLUPNbOJzRt4twV6Y0V2NyzuE3/FX9bexxRTGVcp4+ETlDhjX2eUhDYeTjWk5WaCWx9ceNsaqk/doqBHbNIx24e3I2FKy649ijSSYJrVXmUHYk1So9IFdck+nb/4RVixNjxMn1hYLJQ5wpsEnt7nXN1kU5BPwa85Vtf8A7nN277qzw/eogs2/MHl2YldaJJk3zYGCRFJP348a2/Pi7F9ddipktUWUrpoBfhUER4iRFVtglsMk4v0tl4r8nFD0LN19i7Gi9e3iN/3NhMqS4Rb9gk1p8+7AQxepOti7PEqT69sOfRi07r8YKbqE4nFM4l4lTTrm/QQuKKe3+liHVT7IZ8Mduolm+mn7Y1OFag5vCd/OLOE9u3G+Y3FrF9sI95fQlsn0ila67c51DKRewJHD575kOA4mrW8aWUmAKb/tuW4qGfRmKKbVWeI9YTljR2FQhsNqqGKVgzgc1Z5DhiM9eCbVu01Shy2/CV49pQfrg2XW5EjkTkhnseIk/DGFZETOmYumXvv8c+Fk+fwSTaxu+yt/zh3WaFQKQXorxPIjEgeF13wZQbn5CnV4wMvuSFzrhuXX0tKTAHeqPXqh1Kv1hjw616/YiRxONGe35FrC5TSOg4vKXyqLnBq3RxaZc5yk9efX6pXHTu3U6nmQxfez1x3+nfKB4YyK95f3vSmiKibB561SNiwUuzut+w6WqLBPwGXzhQ9lGmn8gzxmmM/jT9JK84pjmy+oSJxXF9JKipjsoz//8vPy/u/M7+3K5lKxdzn8Q2yr13uPdxyFfO9Vhxra9JqXVj1zXX2hjqn218UuqE7MTY5Arz2LlVnFgv///xe24SEyfKt6LW8BM6LYNcC70GncqYEeOQ+Da7HBMNN32yRZ19EWy97Zg3UHLyvKs1lBDY1SJdvXZqIrBtC7ba/PSucyML3I3ThTVUn7uAczfm2OHV2XCYUArHxnsf1nUWXnH+szxf+bF7xUM/OyW2aXH47S8UPx6kiDW9Rps+Lz8iX6WdYEs1XpzIIf/D9xZFFfHtkEd3vPmXR3v9AM/WEXoQ2ObrJxb52nrEl4TkFgceRUc+S/Ep+yIr04//XpInmth+QBgNKaGC6p9e9cPAWeKuZg6+4o9i2Oi1izGi00DooeEP5xzT6/hFs/7Xb/5L8e0AnZpSfORceW/u/4g/yzOxzZfvJHQxqQr3XuMYN9cUzr0TEmCh66Zftv6E1htO31SZ2LWB419MGdu6TfVTU/tixj+FY+z48ceitgLbJar1Y/tcp4u4XpduO12EeIRymalMSFwrrja/lT8UddZf7R4SziHfOA8e3LQX/rzgl4TA5rNqlJLJApvbQc6mxrXlKhezKMdsHvomxumH7odr49Hb59hMZUNnWQ8fs658BXk5EUnidOLBRxev8H71z/dnEaSH3/FC8Xr00CkilN7yyR33EOaJEy4mlMLy6cnfEa/OvL/X2wYPu26mFNeDxcI5L4oXf39jVdMebP6qF+Do1163HJPHGf/iGMP/8x9F5D7mQapIJ5l8vBzbd8QbzzycZWw5/obKhO6dkHhT9mPvL5tg4wiy0PqTIvRDjHJeD/mfsy19TXXZjR23WP/KPpTY26utwNZFrXkWtp4OYns5C9U1U0bM00WU/Zzi2iayXfZt/ujjoJ/T7Tv6z/XiGp1Z6OjA2PnGLQ+BzSXVOOWSBTZnEazFwt046BvHU5XK0DgeN46nFMmmz5vPzij140p6uKC0E3zyEnBFoG0/cs7bMqw1FoHaC2ziFRKiNlEaIyhVVDk0NnqKB8d+bPlQ+6HruiBXZTl+huyWuQ6BXYZefdZNEtj12RV4BQIgAAIgAAK1IFAfArsWPXe1yRXjqn5s+Xrqaw5fugT2IV2pnZTISP/o+h98GpQABHaDDhzcBgEQAAEQqBcCENj1MhKN6gcEdqOOnNtvCOy+N6boEQiAAAiAQFUJdAnsp++7TUyYMKE7VaOqLqCxhiVA6SmzZ88W2+xxACLYDTuKvR2HwO5Dg4mugAAIgAAI1IJAl8B+5v7bxbhx40Rra2stnECbDUqgra1NvPbaa2Lr3eXRqN0pIkgPadDh7HYbArvRRxD+gwAIgAAI1JhAl8B+5K4bxXrjxopRo0ZJnQSBVONBaYjmO+VRtAsWLBCvvDZX7LrfVyCwG2LUeE5CYPM41X0pOlsaHxBoJAJXfnFCI7kLX0HAQ6BLYF/7i/PF9lttUUSxIbAxYTgESGBT9PqJZ/8qph57MgQ2B1qDlIHAbpCBCrkJgR0ihOv1RgACu95GBP6UIiCF0tRDDxAnTztcjB8/HnnYpWD2n8qUfz1nzhwx/bJfiWtvvqNLYKs0kf6DoU/2FAK7Tw4rOgUCIAACIFBVAlJgNzcPFM89cLdYbcQIMXLkSESxqzoAjdcYRa8XLlwo3lu0SGw5aR/R3i6/BikENvUFKUaNN6I9PYbAbvQRhP8gAAIgAAJ1QGBlmshF54ttt9xMjB07FlHsOhiVenaBotdz584VTz33vJh6HNJD6nmsUnyDwE6hhjogAAIgAAIgYBKQEclNN9pA3PbLi8SwYcOKKPbAgQPBCQR6Eejo6Cii10uWLBEHHXWceOEf8ndUOEGkT80UCOw+NZzoDAiAAAiAQO0IUBS7U/zywvPEjltPFOuss45oaWmpnTtouW4JLFu2TLzxxhti5jPPiW/+26k4/7puRyrdMQjsdHaoCQIgAAIgAAIaga40kaFDWsSMe24RrUOHiDXXXFMMHjwYlECgm8Dy5cvF22+/LdqWLhU77XOwWPrhMkSv++D8gMDug4OKLoEACIAACNSKQJfInrTLDuLyn/5I/vCxuTgXGyK7VuNRX+2SuKZzr9vb28W07/5QPPjoTESv62uIsnkDgZ0NJQyBAAiAAAiAgCQg00RIZU+bepg48ejDC3ENkY2ZocQ1/fPCK64Wl19zA8R1H54WENh9eHDRNRAAARAAgVoQ6IpiK5F98jFHFk6MHj26OFkEP3ysxZjUrk36QSOdGDJ//vzCCTrzuhDXdBSfOpIPb/6s3QBVqGUI7AqBhVkQAAEQAIH+TOBjkT1plx3FBWefJgY3N4kR8ozs4cOHF6kjeNtj354fdM41pYIsXrxYLJJnXS+X/37SGed2pYX0ENfEAede97XZAIHd10YU/QEBEAABEKgTAh+L7KEtQ8RF550ldt52K5lB0lkIbTrKj4R2Ia8QwayTMSvnBo0tfUhY0xF8JKxpbB976i/i+FPP1H7QuFJU46Uy5YDXcW0I7DoeHLgGAiAAAiDQ6AQ+FtnUk003nCBOPWGa2GbiZqJdpg3QMX6tra1i6NChRa42pZDg03gEKAWEcquXypNB2traBB3D1yzH8ulZz4vz/t9lXedcdz1J0f+s/PeVIrvxuguPGQQgsBmQUAQEQAAEQAAE0gkokU0Wuv6dXqs++aAvi90+u7MYv+5YeaRfSxHZpsgnPo1HQKX8tC1dJua8Plf84aFHxQ233yXHs0MT1isFNaLWjTfACR5DYCdAQxUQAAEQAAEQiCdgCO1Cb3elFNg/vmvxraNGJQj4cqfVjxhXCuvufyDfuhIjUW82IbDrbUTgDwiAAAiAQB8noAvtQmX38f721+5pQhpR6343CSCw+92Qo8MgAAIgAAL1QWClsIa+ro/hyOlFt7ZGtDon1kayBYHdSKMFX0EABEAABPoBASjuxhxkiOnGHLfKeA2BXRmusAoCIAACIAACIAACINBPCUBg99OBR7dBAARAAARAAARAAAQqQwACuzJcYRUEQAAEQAAEQAAEQKCfEoDA7qcDj26DAAiAAAiAAAiAAAhUhgAEdmW4wioIgAAIgAAIgAAIgEA/JQCB3U8HHt0GARAAARAAARAAARCoDAEI7MpwhVUQAAEQaEgCq6++euH3u+++25D+V8pp4lIvTOrJl5y8K9GvStgs2+d69Klsn7j1G73vMf7/Lx2kMIFsCxxMAAAAAElFTkSuQmCC;" parent="1" vertex="1">
          <mxGeometry x="420" y="500" width="375.56" height="74.29" as="geometry" />
        </mxCell>
        <mxCell id="Fqr6R2lzom9mKmFI_5mK-10" value="サイト訪問時などに&lt;br&gt;表示されたりする" style="shape=callout;whiteSpace=wrap;html=1;perimeter=calloutPerimeter;position2=0.25;rounded=0;shadow=1;" parent="1" vertex="1">
          <mxGeometry x="685.56" y="457.3" width="120" height="80" as="geometry" />
        </mxCell>
        <mxCell id="Fqr6R2lzom9mKmFI_5mK-11" value="Webブラウザ" style="dashed=0;outlineConnect=0;html=1;align=center;labelPosition=center;verticalLabelPosition=bottom;verticalAlign=top;shape=mxgraph.weblogos.chrome" parent="1" vertex="1">
          <mxGeometry x="200" y="554.6" width="74.8" height="75.4" as="geometry" />
        </mxCell>
        <mxCell id="Fqr6R2lzom9mKmFI_5mK-12" value="この人はいま&lt;br&gt;ログインしてるな！&lt;br&gt;（キープ）" style="shape=callout;whiteSpace=wrap;html=1;perimeter=calloutPerimeter;position2=0;" parent="1" vertex="1">
          <mxGeometry x="260" y="504.5" width="120" height="80" as="geometry" />
        </mxCell>
        <mxCell id="Fqr6R2lzom9mKmFI_5mK-13" value="→複数人でパソコンを共有する場合、パソコンのブラウザに保存された秘密情報（クレジットカード番号やパスワード、ログインの状態など）を自分以外の人が簡単に取得できてしまう危険性もある。" style="text;html=1;align=left;verticalAlign=top;whiteSpace=wrap;rounded=0;" parent="1" vertex="1">
          <mxGeometry x="200" y="660" width="350" height="60" as="geometry" />
        </mxCell>
        <mxCell id="Fqr6R2lzom9mKmFI_5mK-15" value="このサイトはどのような情報を保存するのかを書いている" style="shape=callout;whiteSpace=wrap;html=1;perimeter=calloutPerimeter;flipV=1;" parent="1" vertex="1">
          <mxGeometry x="460" y="567.3" width="120" height="80" as="geometry" />
        </mxCell>
        <mxCell id="Fqr6R2lzom9mKmFI_5mK-20" style="rounded=0;orthogonalLoop=1;jettySize=auto;html=1;endArrow=none;endFill=0;" parent="1" source="Fqr6R2lzom9mKmFI_5mK-16" target="Fqr6R2lzom9mKmFI_5mK-14" edge="1">
          <mxGeometry relative="1" as="geometry" />
        </mxCell>
        <mxCell id="Fqr6R2lzom9mKmFI_5mK-16" value="" style="shape=image;verticalLabelPosition=bottom;labelBackgroundColor=default;verticalAlign=top;aspect=fixed;imageAspect=0;image=https://blogger.googleusercontent.com/img/b/R29vZ2xl/AVvXsEiVelGHSUGqvf3NAGDQ6AxQ07X0ep6mVQlDR4iNTuzB6oDwhWtwvoGBAUFhMedPEgpvRyyRN3wUX_EEd4qlSVyqfjFkMymSbBqxAu_6CuREeWsiL_32j1wRsUiWa3By0BwavdIrTxWNrBMz/s240/silhouette_human01_boy.png;" parent="1" vertex="1">
          <mxGeometry x="685.56" y="790" width="46.96" height="70" as="geometry" />
        </mxCell>
        <mxCell id="Fqr6R2lzom9mKmFI_5mK-19" style="rounded=0;orthogonalLoop=1;jettySize=auto;html=1;endArrow=none;endFill=0;" parent="1" source="Fqr6R2lzom9mKmFI_5mK-17" target="Fqr6R2lzom9mKmFI_5mK-14" edge="1">
          <mxGeometry relative="1" as="geometry" />
        </mxCell>
        <mxCell id="Fqr6R2lzom9mKmFI_5mK-17" value="" style="shape=image;verticalLabelPosition=bottom;labelBackgroundColor=default;verticalAlign=top;aspect=fixed;imageAspect=0;image=https://blogger.googleusercontent.com/img/b/R29vZ2xl/AVvXsEjNjmK0nCmmTL9mK7DcYOTX1FKzK_8Lo15wUS94vSYn1npEl_kP76SheicLnxuZqSFI5FE8Y8na6VWSMaLYzfr3losA9XDpH58fM-clNK86BPmfnwqGSk_2gQQaAx9Efa49pP4U75QHmlxD/s270/silhouette_human04_youngwoman.png;" parent="1" vertex="1">
          <mxGeometry x="578.04" y="750" width="59.48" height="110" as="geometry" />
        </mxCell>
        <mxCell id="Fqr6R2lzom9mKmFI_5mK-21" style="rounded=0;orthogonalLoop=1;jettySize=auto;html=1;endArrow=none;endFill=0;exitX=0.348;exitY=0.018;exitDx=0;exitDy=0;exitPerimeter=0;" parent="1" source="Fqr6R2lzom9mKmFI_5mK-18" target="Fqr6R2lzom9mKmFI_5mK-14" edge="1">
          <mxGeometry relative="1" as="geometry" />
        </mxCell>
        <mxCell id="Fqr6R2lzom9mKmFI_5mK-18" value="" style="shape=image;verticalLabelPosition=bottom;labelBackgroundColor=default;verticalAlign=top;aspect=fixed;imageAspect=0;image=https://blogger.googleusercontent.com/img/b/R29vZ2xl/AVvXsEhoa_pByHCf9-3tm40hGa98_l7mFQ0uw8dC-FdV2Bek9BUvrE0XL7rVoF2BufOzSoyp_X7LcC5WtuSvXxuQbGGQC6121Q7oZvCZhgDhnjiYU-aFMiqEbWJsA8mmS5E6NXOuy0rCjBfxXc62/s320/silhouette_human09_oldman.png;" parent="1" vertex="1">
          <mxGeometry x="760" y="750" width="60.53" height="130" as="geometry" />
        </mxCell>
        <mxCell id="Fqr6R2lzom9mKmFI_5mK-14" value="このパソコンそのものに&lt;span style=&quot;background-color: rgb(255, 255, 255);&quot;&gt;&lt;br&gt;情報を保存するのが&lt;br&gt;Cookie&lt;/span&gt;" style="fontColor=#0066CC;verticalAlign=top;verticalLabelPosition=bottom;labelPosition=center;align=center;html=1;outlineConnect=0;fillColor=#CCCCCC;strokeColor=#6881B3;gradientColor=none;gradientDirection=north;strokeWidth=2;shape=mxgraph.networks.pc;labelBackgroundColor=default;" parent="1" vertex="1">
          <mxGeometry x="650" y="620" width="100" height="70" as="geometry" />
        </mxCell>
        <mxCell id="Fqr6R2lzom9mKmFI_5mK-22" value="手軽だが、&lt;br&gt;&lt;b&gt;けっして安全&lt;br&gt;ではない！&lt;/b&gt;" style="shape=callout;whiteSpace=wrap;html=1;perimeter=calloutPerimeter;shadow=1;" parent="1" vertex="1">
          <mxGeometry x="40.44" y="474.6" width="120" height="80" as="geometry" />
        </mxCell>
        <mxCell id="Fqr6R2lzom9mKmFI_5mK-23" value="わたしたちの&lt;br&gt;青春は一瞬&lt;br&gt;なのよ！" style="shape=callout;whiteSpace=wrap;html=1;perimeter=calloutPerimeter;shadow=1;" parent="1" vertex="1">
          <mxGeometry x="57.44" y="810" width="120" height="80" as="geometry" />
        </mxCell>
        <mxCell id="Fqr6R2lzom9mKmFI_5mK-27" style="edgeStyle=orthogonalEdgeStyle;rounded=0;orthogonalLoop=1;jettySize=auto;html=1;startArrow=classic;startFill=1;shape=flexArrow;" parent="1" source="Fqr6R2lzom9mKmFI_5mK-25" target="Fqr6R2lzom9mKmFI_5mK-26" edge="1">
          <mxGeometry relative="1" as="geometry" />
        </mxCell>
        <mxCell id="Fqr6R2lzom9mKmFI_5mK-25" value="PC" style="fontColor=#0066CC;verticalAlign=top;verticalLabelPosition=bottom;labelPosition=center;align=center;html=1;outlineConnect=0;fillColor=#CCCCCC;strokeColor=#6881B3;gradientColor=none;gradientDirection=north;strokeWidth=2;shape=mxgraph.networks.pc;" parent="1" vertex="1">
          <mxGeometry x="220" y="921.7" width="100" height="70" as="geometry" />
        </mxCell>
        <mxCell id="Fqr6R2lzom9mKmFI_5mK-26" value="Webサーバー" style="image;points=[];aspect=fixed;html=1;align=center;shadow=0;dashed=0;image=img/lib/allied_telesis/storage/Datacenter_Server_Rack_EoR.svg;" parent="1" vertex="1">
          <mxGeometry x="551.72" y="870" width="85.8" height="173.4" as="geometry" />
        </mxCell>
        <mxCell id="Fqr6R2lzom9mKmFI_5mK-28" value="サーバーと接続&lt;br&gt;している間だけ&lt;br&gt;情報を記憶" style="shape=callout;whiteSpace=wrap;html=1;perimeter=calloutPerimeter;" parent="1" vertex="1">
          <mxGeometry x="250" y="850" width="120" height="80" as="geometry" />
        </mxCell>
        <mxCell id="Fqr6R2lzom9mKmFI_5mK-29" value="セッション" style="text;html=1;align=center;verticalAlign=middle;whiteSpace=wrap;rounded=0;" parent="1" vertex="1">
          <mxGeometry x="410" y="921.7" width="80" height="30" as="geometry" />
        </mxCell>
        <mxCell id="Fqr6R2lzom9mKmFI_5mK-30" value="何かと何かが接続している状態をセッションという" style="shape=callout;whiteSpace=wrap;html=1;perimeter=calloutPerimeter;position2=0.04;shadow=1;" parent="1" vertex="1">
          <mxGeometry x="354" y="775" width="120" height="80" as="geometry" />
        </mxCell>
        <mxCell id="Fqr6R2lzom9mKmFI_5mK-31" value="&lt;div&gt;ブラウザを閉じたり、PCを再起動したりするとサイトに再ログインしなければいけないような場合がありますが、この場合はセッションを利用しています。&lt;/div&gt;" style="text;html=1;align=left;verticalAlign=top;whiteSpace=wrap;rounded=0;" parent="1" vertex="1">
          <mxGeometry x="220" y="1030" width="350" height="60" as="geometry" />
        </mxCell>
        <mxCell id="Fqr6R2lzom9mKmFI_5mK-32" value="誰がアクセスしているのかを覚えておく&lt;br&gt;（セッションID）" style="shape=callout;whiteSpace=wrap;html=1;perimeter=calloutPerimeter;position2=0.08;" parent="1" vertex="1">
          <mxGeometry x="612.52" y="860" width="120" height="80" as="geometry" />
        </mxCell>
        <mxCell id="Fqr6R2lzom9mKmFI_5mK-33" value="セッションIDはブラウザが開いている間だけ同一のものが使われる" style="text;html=1;align=center;verticalAlign=middle;whiteSpace=wrap;rounded=0;" parent="1" vertex="1">
          <mxGeometry x="678.6" y="917.5" width="133.91" height="55" as="geometry" />
        </mxCell>
        <mxCell id="Fqr6R2lzom9mKmFI_5mK-38" style="edgeStyle=orthogonalEdgeStyle;rounded=0;orthogonalLoop=1;jettySize=auto;html=1;startArrow=classic;startFill=1;shape=flexArrow;" parent="1" source="Fqr6R2lzom9mKmFI_5mK-39" target="Fqr6R2lzom9mKmFI_5mK-40" edge="1">
          <mxGeometry relative="1" as="geometry" />
        </mxCell>
        <mxCell id="Fqr6R2lzom9mKmFI_5mK-39" value="PC" style="fontColor=#0066CC;verticalAlign=top;verticalLabelPosition=bottom;labelPosition=center;align=center;html=1;outlineConnect=0;fillColor=#CCCCCC;strokeColor=#6881B3;gradientColor=none;gradientDirection=north;strokeWidth=2;shape=mxgraph.networks.pc;" parent="1" vertex="1">
          <mxGeometry x="95.12" y="1321.7" width="100" height="70" as="geometry" />
        </mxCell>
        <mxCell id="Fqr6R2lzom9mKmFI_5mK-40" value="Webサーバー" style="image;points=[];aspect=fixed;html=1;align=center;shadow=0;dashed=0;image=img/lib/allied_telesis/storage/Datacenter_Server_Rack_EoR.svg;" parent="1" vertex="1">
          <mxGeometry x="426.84000000000003" y="1270" width="85.8" height="173.4" as="geometry" />
        </mxCell>
        <mxCell id="Fqr6R2lzom9mKmFI_5mK-41" value="&lt;div&gt;セッションID&lt;/div&gt;&lt;div&gt;AB1234&lt;br&gt;&lt;/div&gt;" style="shape=callout;whiteSpace=wrap;html=1;perimeter=calloutPerimeter;shadow=1;" parent="1" vertex="1">
          <mxGeometry x="125.12" y="1250" width="120" height="80" as="geometry" />
        </mxCell>
        <mxCell id="Fqr6R2lzom9mKmFI_5mK-42" value="セッション&lt;br&gt;（正規）" style="text;html=1;align=center;verticalAlign=middle;whiteSpace=wrap;rounded=0;" parent="1" vertex="1">
          <mxGeometry x="270" y="1321.7" width="80" height="30" as="geometry" />
        </mxCell>
        <mxCell id="Fqr6R2lzom9mKmFI_5mK-45" value="セッションID&lt;br&gt;AB1234" style="shape=callout;whiteSpace=wrap;html=1;perimeter=calloutPerimeter;position2=0.08;shadow=1;" parent="1" vertex="1">
          <mxGeometry x="487.64" y="1260" width="120" height="80" as="geometry" />
        </mxCell>
        <mxCell id="Fqr6R2lzom9mKmFI_5mK-47" value="クラッカー&#xa;（攻撃者）" style="shape=image;verticalLabelPosition=bottom;labelBackgroundColor=default;verticalAlign=top;aspect=fixed;imageAspect=0;image=https://blogger.googleusercontent.com/img/b/R29vZ2xl/AVvXsEjrueub7iVHDNAp50-GaKoopEE6e1h9zLUiPjKBMCPkNvxOdJXON0tCAALMSzT1eg1Kp61BNCi2k9slaWn_9jz6sx4kd337SHV6W1Bhx2MwjVKe2N8wHOsTP6g96Kn5U0w32lJthZTjzhk/s300/hacker_cracker4_laugh.png;" parent="1" vertex="1">
          <mxGeometry x="650" y="1420" width="68.4" height="90" as="geometry" />
        </mxCell>
        <mxCell id="Fqr6R2lzom9mKmFI_5mK-48" style="rounded=0;orthogonalLoop=1;jettySize=auto;html=1;entryX=0.967;entryY=0.488;entryDx=0;entryDy=0;entryPerimeter=0;strokeColor=#FF0000;" parent="1" source="Fqr6R2lzom9mKmFI_5mK-47" target="Fqr6R2lzom9mKmFI_5mK-40" edge="1">
          <mxGeometry relative="1" as="geometry" />
        </mxCell>
        <mxCell id="Fqr6R2lzom9mKmFI_5mK-49" value="&lt;font color=&quot;#ff0000&quot;&gt;攻撃&lt;/font&gt;" style="text;html=1;align=center;verticalAlign=middle;whiteSpace=wrap;rounded=0;" parent="1" vertex="1">
          <mxGeometry x="564.62" y="1375" width="60" height="30" as="geometry" />
        </mxCell>
        <mxCell id="Fqr6R2lzom9mKmFI_5mK-50" value="セッションID&lt;br&gt;AB1234" style="shape=callout;whiteSpace=wrap;html=1;perimeter=calloutPerimeter;position2=0.08;shadow=1;" parent="1" vertex="1">
          <mxGeometry x="692.51" y="1350" width="120" height="80" as="geometry" />
        </mxCell>
        <mxCell id="Fqr6R2lzom9mKmFI_5mK-52" value="PC" style="fontColor=#0066CC;verticalAlign=top;verticalLabelPosition=bottom;labelPosition=center;align=center;html=1;outlineConnect=0;fillColor=#CCCCCC;strokeColor=#6881B3;gradientColor=none;gradientDirection=north;strokeWidth=2;shape=mxgraph.networks.pc;" parent="1" vertex="1">
          <mxGeometry x="89.88" y="1671.7" width="100" height="70" as="geometry" />
        </mxCell>
        <mxCell id="Fqr6R2lzom9mKmFI_5mK-53" value="Webサーバー" style="image;points=[];aspect=fixed;html=1;align=center;shadow=0;dashed=0;image=img/lib/allied_telesis/storage/Datacenter_Server_Rack_EoR.svg;" parent="1" vertex="1">
          <mxGeometry x="401.72" y="1600" width="85.8" height="173.4" as="geometry" />
        </mxCell>
        <mxCell id="Fqr6R2lzom9mKmFI_5mK-54" value="ZZZ..." style="shape=callout;whiteSpace=wrap;html=1;perimeter=calloutPerimeter;shadow=1;" parent="1" vertex="1">
          <mxGeometry x="119.88" y="1600" width="120" height="80" as="geometry" />
        </mxCell>
        <mxCell id="Fqr6R2lzom9mKmFI_5mK-56" value="セッションID&lt;br&gt;AB1234" style="shape=callout;whiteSpace=wrap;html=1;perimeter=calloutPerimeter;position2=0.08;shadow=1;" parent="1" vertex="1">
          <mxGeometry x="462.52" y="1590" width="120" height="80" as="geometry" />
        </mxCell>
        <mxCell id="Fqr6R2lzom9mKmFI_5mK-57" value="クラッカー&#xa;（攻撃者）" style="shape=image;verticalLabelPosition=bottom;labelBackgroundColor=default;verticalAlign=top;aspect=fixed;imageAspect=0;image=https://blogger.googleusercontent.com/img/b/R29vZ2xl/AVvXsEjrueub7iVHDNAp50-GaKoopEE6e1h9zLUiPjKBMCPkNvxOdJXON0tCAALMSzT1eg1Kp61BNCi2k9slaWn_9jz6sx4kd337SHV6W1Bhx2MwjVKe2N8wHOsTP6g96Kn5U0w32lJthZTjzhk/s300/hacker_cracker4_laugh.png;" parent="1" vertex="1">
          <mxGeometry x="664.12" y="1780" width="68.4" height="90" as="geometry" />
        </mxCell>
        <mxCell id="Fqr6R2lzom9mKmFI_5mK-58" style="rounded=0;orthogonalLoop=1;jettySize=auto;html=1;entryX=0.967;entryY=0.488;entryDx=0;entryDy=0;entryPerimeter=0;strokeColor=#FF0000;startArrow=classic;startFill=1;shape=flexArrow;" parent="1" source="Fqr6R2lzom9mKmFI_5mK-57" target="Fqr6R2lzom9mKmFI_5mK-53" edge="1">
          <mxGeometry relative="1" as="geometry" />
        </mxCell>
        <mxCell id="Fqr6R2lzom9mKmFI_5mK-59" value="不正な&lt;br&gt;セッション" style="text;html=1;align=center;verticalAlign=middle;whiteSpace=wrap;rounded=0;fontColor=#FF0000;" parent="1" vertex="1">
          <mxGeometry x="499.52" y="1750" width="83" height="30" as="geometry" />
        </mxCell>
        <mxCell id="Fqr6R2lzom9mKmFI_5mK-60" value="セッションID&lt;br&gt;AB1234" style="shape=callout;whiteSpace=wrap;html=1;perimeter=calloutPerimeter;position2=0.08;shadow=1;" parent="1" vertex="1">
          <mxGeometry x="685.55" y="1730" width="120" height="80" as="geometry" />
        </mxCell>
        <mxCell id="Fqr6R2lzom9mKmFI_5mK-62" value="本来の&lt;br&gt;セッションは&lt;br&gt;終了" style="text;html=1;align=center;verticalAlign=middle;whiteSpace=wrap;rounded=0;" parent="1" vertex="1">
          <mxGeometry x="294.12" y="1640" width="84.88" height="50" as="geometry" />
        </mxCell>
        <mxCell id="Fqr6R2lzom9mKmFI_5mK-63" value="電源OFF" style="text;html=1;align=center;verticalAlign=middle;whiteSpace=wrap;rounded=0;" parent="1" vertex="1">
          <mxGeometry x="195.12" y="1700" width="60" height="30" as="geometry" />
        </mxCell>
        <mxCell id="Fqr6R2lzom9mKmFI_5mK-64" value="ほうほう、&lt;br&gt;こいつのクレカ&lt;br&gt;番号は・・・" style="shape=callout;whiteSpace=wrap;html=1;perimeter=calloutPerimeter;position2=0.9;flipV=1;shadow=1;" parent="1" vertex="1">
          <mxGeometry x="542.12" y="1840" width="120" height="80" as="geometry" />
        </mxCell>
        <mxCell id="Fqr6R2lzom9mKmFI_5mK-65" value="ログイン済みとみなされるため、&lt;br&gt;ログインなしで個人情報にアクセス可能！" style="text;html=1;align=center;verticalAlign=middle;whiteSpace=wrap;rounded=0;" parent="1" vertex="1">
          <mxGeometry x="569.13" y="1690" width="251.4" height="30" as="geometry" />
        </mxCell>
        <mxCell id="hfXmXHoH8Cfm0-PpdlyW-33" style="edgeStyle=orthogonalEdgeStyle;rounded=0;orthogonalLoop=1;jettySize=auto;html=1;curved=1;strokeColor=#FF0000;" parent="1" source="Fqr6R2lzom9mKmFI_5mK-66" target="hfXmXHoH8Cfm0-PpdlyW-30" edge="1">
          <mxGeometry relative="1" as="geometry" />
        </mxCell>
        <mxCell id="Fqr6R2lzom9mKmFI_5mK-66" value="&lt;b&gt;&lt;font color=&quot;#ff0000&quot;&gt;グローバルIP&lt;/font&gt;などでの識別&lt;br&gt;Webブラウザの種類を特定&lt;br&gt;セッションIDの定期更新&lt;br&gt;などの追加対策が必要！&lt;/b&gt;" style="text;html=1;align=center;verticalAlign=middle;whiteSpace=wrap;rounded=0;" parent="1" vertex="1">
          <mxGeometry x="308.09" y="1810" width="191.43" height="60" as="geometry" />
        </mxCell>
        <mxCell id="hfXmXHoH8Cfm0-PpdlyW-1" value="セッションハイジャック" style="text;html=1;align=center;verticalAlign=middle;whiteSpace=wrap;rounded=0;" parent="1" vertex="1">
          <mxGeometry x="57.44" y="1190" width="152.56" height="30" as="geometry" />
        </mxCell>
        <mxCell id="hfXmXHoH8Cfm0-PpdlyW-4" style="edgeStyle=orthogonalEdgeStyle;rounded=0;orthogonalLoop=1;jettySize=auto;html=1;startArrow=classic;startFill=1;" parent="1" source="hfXmXHoH8Cfm0-PpdlyW-2" target="hfXmXHoH8Cfm0-PpdlyW-3" edge="1">
          <mxGeometry relative="1" as="geometry" />
        </mxCell>
        <mxCell id="hfXmXHoH8Cfm0-PpdlyW-2" value="PC" style="fontColor=#0066CC;verticalAlign=top;verticalLabelPosition=bottom;labelPosition=center;align=center;html=1;outlineConnect=0;fillColor=#CCCCCC;strokeColor=#6881B3;gradientColor=none;gradientDirection=north;strokeWidth=2;shape=mxgraph.networks.pc;" parent="1" vertex="1">
          <mxGeometry x="67.44" y="2130" width="100" height="70" as="geometry" />
        </mxCell>
        <mxCell id="hfXmXHoH8Cfm0-PpdlyW-9" style="rounded=0;orthogonalLoop=1;jettySize=auto;html=1;startArrow=classic;startFill=1;" parent="1" source="hfXmXHoH8Cfm0-PpdlyW-3" target="hfXmXHoH8Cfm0-PpdlyW-8" edge="1">
          <mxGeometry relative="1" as="geometry" />
        </mxCell>
        <mxCell id="hfXmXHoH8Cfm0-PpdlyW-23" style="edgeStyle=orthogonalEdgeStyle;rounded=0;orthogonalLoop=1;jettySize=auto;html=1;startArrow=classic;startFill=1;shape=link;" parent="1" source="hfXmXHoH8Cfm0-PpdlyW-3" target="hfXmXHoH8Cfm0-PpdlyW-17" edge="1">
          <mxGeometry relative="1" as="geometry" />
        </mxCell>
        <mxCell id="hfXmXHoH8Cfm0-PpdlyW-3" value="ルーター" style="image;html=1;image=img/lib/clip_art/networking/Router_Icon_128x128.png;labelBackgroundColor=none;" parent="1" vertex="1">
          <mxGeometry x="320" y="2125" width="80" height="80" as="geometry" />
        </mxCell>
        <mxCell id="hfXmXHoH8Cfm0-PpdlyW-7" value="スマホ" style="image;points=[];aspect=fixed;html=1;align=center;shadow=0;dashed=0;image=img/lib/allied_telesis/computer_and_terminals/Smartphone.svg;labelBackgroundColor=none;" parent="1" vertex="1">
          <mxGeometry x="70" y="1980" width="30.12" height="65.72" as="geometry" />
        </mxCell>
        <mxCell id="hfXmXHoH8Cfm0-PpdlyW-10" style="rounded=0;orthogonalLoop=1;jettySize=auto;html=1;startArrow=classic;startFill=1;" parent="1" source="hfXmXHoH8Cfm0-PpdlyW-8" target="hfXmXHoH8Cfm0-PpdlyW-7" edge="1">
          <mxGeometry relative="1" as="geometry" />
        </mxCell>
        <mxCell id="hfXmXHoH8Cfm0-PpdlyW-8" value="Wifi&lt;br&gt;アクセスポイント" style="sketch=0;pointerEvents=1;shadow=0;dashed=0;html=1;strokeColor=none;fillColor=#434445;aspect=fixed;labelPosition=center;verticalLabelPosition=bottom;verticalAlign=top;align=center;outlineConnect=0;shape=mxgraph.vvd.wi_fi;" parent="1" vertex="1">
          <mxGeometry x="195.12" y="2010" width="50" height="50" as="geometry" />
        </mxCell>
        <mxCell id="hfXmXHoH8Cfm0-PpdlyW-11" value="172.16.0.100" style="text;html=1;align=center;verticalAlign=middle;whiteSpace=wrap;rounded=0;fontColor=#0000FF;fontStyle=1;fillColor=none;" parent="1" vertex="1">
          <mxGeometry x="743.3599999999999" y="2240" width="80" height="20" as="geometry" />
        </mxCell>
        <mxCell id="hfXmXHoH8Cfm0-PpdlyW-12" value="&lt;div&gt;192.168.0.3&lt;/div&gt;" style="text;html=1;align=center;verticalAlign=middle;whiteSpace=wrap;rounded=0;fontColor=#0000FF;fontStyle=1" parent="1" vertex="1">
          <mxGeometry x="80.44" y="2220" width="80" height="20" as="geometry" />
        </mxCell>
        <mxCell id="hfXmXHoH8Cfm0-PpdlyW-13" value="&lt;div&gt;192.168.0.2&lt;/div&gt;" style="text;html=1;align=center;verticalAlign=middle;whiteSpace=wrap;rounded=0;fontColor=#0000FF;fontStyle=1" parent="1" vertex="1">
          <mxGeometry x="180.12" y="2092" width="80" height="20" as="geometry" />
        </mxCell>
        <mxCell id="hfXmXHoH8Cfm0-PpdlyW-14" value="&lt;div&gt;192.168.0.10&lt;/div&gt;" style="text;html=1;align=center;verticalAlign=middle;whiteSpace=wrap;rounded=0;fontColor=#0000FF;fontStyle=1" parent="1" vertex="1">
          <mxGeometry x="48" y="2066" width="80" height="20" as="geometry" />
        </mxCell>
        <mxCell id="hfXmXHoH8Cfm0-PpdlyW-15" value="ローカルIP" style="text;html=1;align=center;verticalAlign=middle;whiteSpace=wrap;rounded=0;fontColor=#0000FF;fontStyle=1" parent="1" vertex="1">
          <mxGeometry x="160.44" y="2250" width="80" height="30" as="geometry" />
        </mxCell>
        <mxCell id="hfXmXHoH8Cfm0-PpdlyW-16" value="Webサーバー" style="image;points=[];aspect=fixed;html=1;align=center;shadow=0;dashed=0;image=img/lib/allied_telesis/storage/Datacenter_Server_Rack_EoR.svg;labelBackgroundColor=none;" parent="1" vertex="1">
          <mxGeometry x="757.1" y="2111.94" width="52.51" height="106.12" as="geometry" />
        </mxCell>
        <mxCell id="hfXmXHoH8Cfm0-PpdlyW-17" value="ルーター" style="image;html=1;image=img/lib/clip_art/networking/Router_Icon_128x128.png;labelBackgroundColor=none;" parent="1" vertex="1">
          <mxGeometry x="589" y="2125" width="80" height="80" as="geometry" />
        </mxCell>
        <mxCell id="hfXmXHoH8Cfm0-PpdlyW-19" style="edgeStyle=orthogonalEdgeStyle;rounded=0;orthogonalLoop=1;jettySize=auto;html=1;entryX=0.026;entryY=0.496;entryDx=0;entryDy=0;entryPerimeter=0;startArrow=classic;startFill=1;" parent="1" source="hfXmXHoH8Cfm0-PpdlyW-17" target="hfXmXHoH8Cfm0-PpdlyW-16" edge="1">
          <mxGeometry relative="1" as="geometry" />
        </mxCell>
        <mxCell id="hfXmXHoH8Cfm0-PpdlyW-20" value="192.168.0.1" style="text;html=1;align=center;verticalAlign=middle;whiteSpace=wrap;rounded=0;fontColor=#0000FF;fontStyle=1" parent="1" vertex="1">
          <mxGeometry x="280" y="2195" width="80" height="20" as="geometry" />
        </mxCell>
        <mxCell id="hfXmXHoH8Cfm0-PpdlyW-22" value="172.16.0.1" style="text;html=1;align=center;verticalAlign=middle;whiteSpace=wrap;rounded=0;fontColor=#0000FF;fontStyle=1;fillColor=none;" parent="1" vertex="1">
          <mxGeometry x="629.9999999999999" y="2190" width="80" height="20" as="geometry" />
        </mxCell>
        <mxCell id="hfXmXHoH8Cfm0-PpdlyW-24" value="インターネット回線" style="text;html=1;align=center;verticalAlign=middle;whiteSpace=wrap;rounded=0;" parent="1" vertex="1">
          <mxGeometry x="437.14" y="2130" width="127.48" height="30" as="geometry" />
        </mxCell>
        <mxCell id="hfXmXHoH8Cfm0-PpdlyW-25" value="100.150.22.13" style="text;html=1;align=center;verticalAlign=middle;whiteSpace=wrap;rounded=0;fontColor=#FF0000;fontStyle=1" parent="1" vertex="1">
          <mxGeometry x="367" y="2188" width="92.86" height="30" as="geometry" />
        </mxCell>
        <mxCell id="hfXmXHoH8Cfm0-PpdlyW-26" value="120.99.65.11" style="text;html=1;align=center;verticalAlign=middle;whiteSpace=wrap;rounded=0;fontColor=#FF0000;fontStyle=1" parent="1" vertex="1">
          <mxGeometry x="525.66" y="2188.06" width="92.86" height="30" as="geometry" />
        </mxCell>
        <mxCell id="hfXmXHoH8Cfm0-PpdlyW-28" value="&lt;div&gt;グローバルIP&lt;/div&gt;" style="text;html=1;align=center;verticalAlign=middle;whiteSpace=wrap;rounded=0;fontColor=#FF0000;fontStyle=1" parent="1" vertex="1">
          <mxGeometry x="452.14" y="2235" width="97.48" height="30" as="geometry" />
        </mxCell>
        <mxCell id="hfXmXHoH8Cfm0-PpdlyW-29" value="ローカルIP" style="text;html=1;align=center;verticalAlign=middle;whiteSpace=wrap;rounded=0;fontColor=#0000FF;fontStyle=1" parent="1" vertex="1">
          <mxGeometry x="685.56" y="2265" width="80" height="30" as="geometry" />
        </mxCell>
        <mxCell id="hfXmXHoH8Cfm0-PpdlyW-31" value="IPのルール：ひとつの囲み（ネットワーク）のなかで&lt;br&gt;数字が被ってはいけない！" style="text;html=1;align=center;verticalAlign=middle;whiteSpace=wrap;rounded=0;fontStyle=1" parent="1" vertex="1">
          <mxGeometry x="62.120000000000005" y="1920" width="304.88" height="30" as="geometry" />
        </mxCell>
        <mxCell id="hfXmXHoH8Cfm0-PpdlyW-32" value="インターネットは世界に１つなので、&lt;br&gt;グローバルIPは世界に１個しかない！" style="text;html=1;align=center;verticalAlign=middle;whiteSpace=wrap;rounded=0;fontColor=#FF0000;fontStyle=1" parent="1" vertex="1">
          <mxGeometry x="381.07" y="2280" width="227.86" height="30" as="geometry" />
        </mxCell>
        <mxCell id="TIcdun5A5qGMpaTc8DKn-1" value="ログインやログアウトは、&lt;br&gt;正常に行われたことを&lt;br&gt;どこかで覚えておかないといけない！" style="shape=callout;whiteSpace=wrap;html=1;perimeter=calloutPerimeter;flipV=1;size=30;position=0.6;base=20;" vertex="1" parent="1">
          <mxGeometry x="360" y="110" width="212.52" height="110" as="geometry" />
        </mxCell>
      </root>
    </mxGraphModel>
  </diagram>
  <diagram id="S0ZtxSvyTVIkl7HekOM0" name="ページ2">
    <mxGraphModel dx="1420" dy="768" grid="1" gridSize="10" guides="1" tooltips="1" connect="1" arrows="1" fold="1" page="1" pageScale="1" pageWidth="827" pageHeight="1169" math="0" shadow="0">
      <root>
        <mxCell id="0" />
        <mxCell id="1" parent="0" />
        <mxCell id="2lYenDMfA8N6YShKFMY3-4" style="edgeStyle=orthogonalEdgeStyle;rounded=0;orthogonalLoop=1;jettySize=auto;html=1;" parent="1" source="2lYenDMfA8N6YShKFMY3-1" edge="1">
          <mxGeometry relative="1" as="geometry">
            <mxPoint x="334" y="460" as="targetPoint" />
          </mxGeometry>
        </mxCell>
        <mxCell id="2lYenDMfA8N6YShKFMY3-1" value="&lt;div style=&quot;color: #d4d4d4;background-color: #1e1e1e;font-family: Consolas, &#39;Courier New&#39;, monospace;font-weight: normal;font-size: 14px;line-height: 19px;white-space: pre;&quot;&gt;&lt;div&gt;&lt;span style=&quot;color: #569cd6;&quot;&gt;&amp;lt;?php&lt;/span&gt;&lt;/div&gt;&lt;br&gt;&lt;div&gt;&lt;span style=&quot;color: #9cdcfe;&quot;&gt;$value&lt;/span&gt;&lt;span style=&quot;color: #d4d4d4;&quot;&gt;&amp;nbsp;=&amp;nbsp;&lt;/span&gt;&lt;span style=&quot;color: #ce9178;&quot;&gt;&#39;変数に保存した値です&#39;&lt;/span&gt;&lt;span style=&quot;color: #d4d4d4;&quot;&gt;;&lt;/span&gt;&lt;/div&gt;&lt;div&gt;&lt;span style=&quot;color: #dcdcaa;&quot;&gt;setcookie&lt;/span&gt;&lt;span style=&quot;color: #d4d4d4;&quot;&gt;(&lt;/span&gt;&lt;span style=&quot;color: #ce9178;&quot;&gt;&#39;save_message&#39;&lt;/span&gt;&lt;span style=&quot;color: #d4d4d4;&quot;&gt;,&lt;/span&gt;&lt;span style=&quot;color: #ce9178;&quot;&gt;&#39;Cookieに保存した値です&#39;&lt;/span&gt;&lt;span style=&quot;color: #d4d4d4;&quot;&gt;,&amp;nbsp;&lt;/span&gt;&lt;span style=&quot;color: #dcdcaa;&quot;&gt;time&lt;/span&gt;&lt;span style=&quot;color: #d4d4d4;&quot;&gt;()&amp;nbsp;+&amp;nbsp;&lt;/span&gt;&lt;span style=&quot;color: #b5cea8;&quot;&gt;60&lt;/span&gt;&lt;span style=&quot;color: #d4d4d4;&quot;&gt;&amp;nbsp;*&amp;nbsp;&lt;/span&gt;&lt;span style=&quot;color: #b5cea8;&quot;&gt;60&lt;/span&gt;&lt;span style=&quot;color: #d4d4d4;&quot;&gt;&amp;nbsp;*&amp;nbsp;&lt;/span&gt;&lt;span style=&quot;color: #b5cea8;&quot;&gt;24&lt;/span&gt;&lt;span style=&quot;color: #d4d4d4;&quot;&gt;&amp;nbsp;*&amp;nbsp;&lt;/span&gt;&lt;span style=&quot;color: #b5cea8;&quot;&gt;14&lt;/span&gt;&lt;span style=&quot;color: #d4d4d4;&quot;&gt;&amp;nbsp;);&lt;/span&gt;&lt;/div&gt;&lt;br&gt;&lt;div&gt;&lt;span style=&quot;color: #569cd6;&quot;&gt;?&lt;/span&gt;&lt;span style=&quot;color: #569cd6;&quot;&gt;&amp;gt;&lt;/span&gt;&lt;/div&gt;&lt;/div&gt;" style="text;html=1;align=left;verticalAlign=top;whiteSpace=wrap;rounded=0;" parent="1" vertex="1">
          <mxGeometry x="19" y="130" width="630" height="120" as="geometry" />
        </mxCell>
        <mxCell id="2lYenDMfA8N6YShKFMY3-2" value="3-24..php" style="text;html=1;align=center;verticalAlign=middle;whiteSpace=wrap;rounded=0;" parent="1" vertex="1">
          <mxGeometry x="19" y="110" width="60" height="30" as="geometry" />
        </mxCell>
        <UserObject label="&lt;div style=&quot;color: #d4d4d4;background-color: #1e1e1e;font-family: Consolas, &#39;Courier New&#39;, monospace;font-weight: normal;font-size: 14px;line-height: 19px;white-space: pre;&quot;&gt;&lt;div&gt;&lt;span style=&quot;color: #808080;&quot;&gt;&amp;lt;&lt;/span&gt;&lt;span style=&quot;color: #569cd6;&quot;&gt;a&lt;/span&gt;&lt;span style=&quot;color: #d4d4d4;&quot;&gt;&amp;nbsp;&lt;/span&gt;&lt;span style=&quot;color: #9cdcfe;&quot;&gt;href&lt;/span&gt;&lt;span style=&quot;color: #d4d4d4;&quot;&gt;=&lt;/span&gt;&lt;span style=&quot;color: #ce9178;&quot;&gt;&quot;page02.php&quot;&lt;/span&gt;&lt;span style=&quot;color: #808080;&quot;&gt;&amp;gt;&lt;/span&gt;&lt;span style=&quot;color: #d4d4d4;&quot;&gt;Page02へ&lt;/span&gt;&lt;span style=&quot;color: #808080;&quot;&gt;&amp;lt;/&lt;/span&gt;&lt;span style=&quot;color: #569cd6;&quot;&gt;a&lt;/span&gt;&lt;span style=&quot;color: #808080;&quot;&gt;&amp;gt;&lt;/span&gt;&lt;/div&gt;&lt;/div&gt;" link="&lt;div style=&quot;color: #d4d4d4;background-color: #1e1e1e;font-family: Consolas, &#39;Courier New&#39;, monospace;font-weight: normal;font-size: 14px;line-height: 19px;white-space: pre;&quot;&gt;&lt;div&gt;&lt;span style=&quot;color: #808080;&quot;&gt;&amp;lt;&lt;/span&gt;&lt;span style=&quot;color: #569cd6;&quot;&gt;a&lt;/span&gt;&lt;span style=&quot;color: #d4d4d4;&quot;&gt;&amp;nbsp;&lt;/span&gt;&lt;span style=&quot;color: #9cdcfe;&quot;&gt;href&lt;/span&gt;&lt;span style=&quot;color: #d4d4d4;&quot;&gt;=&lt;/span&gt;&lt;span style=&quot;color: #ce9178;&quot;&gt;&quot;page02.php&quot;&lt;/span&gt;&lt;span style=&quot;color: #808080;&quot;&gt;&amp;gt;&lt;/span&gt;&lt;span style=&quot;color: #d4d4d4;&quot;&gt;Page02へ&lt;/span&gt;&lt;span style=&quot;color: #808080;&quot;&gt;&amp;lt;/&lt;/span&gt;&lt;span style=&quot;color: #569cd6;&quot;&gt;a&lt;/span&gt;&lt;span style=&quot;color: #808080;&quot;&gt;&amp;gt;&lt;/span&gt;&lt;/div&gt;&lt;/div&gt;" id="2lYenDMfA8N6YShKFMY3-3">
          <mxCell style="text;whiteSpace=wrap;html=1;" parent="1" vertex="1">
            <mxGeometry x="339" y="320" width="270" height="30" as="geometry" />
          </mxCell>
        </UserObject>
        <mxCell id="2lYenDMfA8N6YShKFMY3-5" value="3-24..php" style="text;html=1;align=center;verticalAlign=middle;whiteSpace=wrap;rounded=0;" parent="1" vertex="1">
          <mxGeometry x="339" y="300" width="60" height="30" as="geometry" />
        </mxCell>
        <mxCell id="2lYenDMfA8N6YShKFMY3-7" value="ページ遷移" style="text;html=1;align=center;verticalAlign=middle;whiteSpace=wrap;rounded=0;fontStyle=1" parent="1" vertex="1">
          <mxGeometry x="249" y="340" width="80" height="30" as="geometry" />
        </mxCell>
        <mxCell id="2lYenDMfA8N6YShKFMY3-8" value="&lt;div style=&quot;color: #d4d4d4;background-color: #1e1e1e;font-family: Consolas, &#39;Courier New&#39;, monospace;font-weight: normal;font-size: 14px;line-height: 19px;white-space: pre;&quot;&gt;&lt;div&gt;&lt;span style=&quot;color: #808080;&quot;&gt;&amp;lt;&lt;/span&gt;&lt;span style=&quot;color: #569cd6;&quot;&gt;pre&lt;/span&gt;&lt;span style=&quot;color: #808080;&quot;&gt;&amp;gt;&lt;/span&gt;&lt;/div&gt;&lt;div&gt;&lt;span style=&quot;color: #d4d4d4;&quot;&gt;変数の値：&lt;/span&gt;&lt;span style=&quot;color: #569cd6;&quot;&gt;&amp;lt;?php&lt;/span&gt;&lt;span style=&quot;color: #d4d4d4;&quot;&gt;&amp;nbsp;&lt;/span&gt;&lt;span style=&quot;color: #dcdcaa;&quot;&gt;print&lt;/span&gt;&lt;span style=&quot;color: #d4d4d4;&quot;&gt;(&lt;/span&gt;&lt;span style=&quot;color: #9cdcfe;&quot;&gt;$value&lt;/span&gt;&lt;span style=&quot;color: #d4d4d4;&quot;&gt;);&amp;nbsp;&lt;/span&gt;&lt;span style=&quot;color: #569cd6;&quot;&gt;?&lt;/span&gt;&lt;span style=&quot;color: #569cd6;&quot;&gt;&amp;gt;&lt;/span&gt;&lt;/div&gt;&lt;div&gt;&lt;span style=&quot;color: #d4d4d4;&quot;&gt;Cookieの値：&lt;/span&gt;&lt;span style=&quot;color: #569cd6;&quot;&gt;&amp;lt;?php&lt;/span&gt;&lt;span style=&quot;color: #d4d4d4;&quot;&gt;&amp;nbsp;&lt;/span&gt;&lt;span style=&quot;color: #dcdcaa;&quot;&gt;print&lt;/span&gt;&lt;span style=&quot;color: #d4d4d4;&quot;&gt;(&lt;/span&gt;&lt;span style=&quot;color: #9cdcfe;&quot;&gt;$_COOKIE&lt;/span&gt;&lt;span style=&quot;color: #d4d4d4;&quot;&gt;[&lt;/span&gt;&lt;span style=&quot;color: #ce9178;&quot;&gt;&#39;save_message&#39;&lt;/span&gt;&lt;span style=&quot;color: #d4d4d4;&quot;&gt;]);&lt;/span&gt;&lt;span style=&quot;color: #569cd6;&quot;&gt;?&lt;/span&gt;&lt;span style=&quot;color: #569cd6;&quot;&gt;&amp;gt;&lt;/span&gt;&lt;/div&gt;&lt;div&gt;&lt;span style=&quot;color: #808080;&quot;&gt;&amp;lt;/&lt;/span&gt;&lt;span style=&quot;color: #569cd6;&quot;&gt;pre&lt;/span&gt;&lt;span style=&quot;color: #808080;&quot;&gt;&amp;gt;&lt;/span&gt;&lt;/div&gt;&lt;/div&gt;" style="text;whiteSpace=wrap;html=1;" parent="1" vertex="1">
          <mxGeometry x="114" y="460" width="440" height="100" as="geometry" />
        </mxCell>
        <mxCell id="2lYenDMfA8N6YShKFMY3-9" value="page02.php" style="text;html=1;align=center;verticalAlign=middle;whiteSpace=wrap;rounded=0;" parent="1" vertex="1">
          <mxGeometry x="114" y="440" width="65" height="30" as="geometry" />
        </mxCell>
        <mxCell id="2lYenDMfA8N6YShKFMY3-10" value="&lt;pre&gt;変数の値：&lt;br&gt;&lt;br&gt;&lt;font color=&quot;#ff3333&quot;&gt;&lt;b&gt;Warning&lt;/b&gt;:  Undefined variable $value in &lt;b&gt;C:\xampp\htdocs\page02.php&lt;/b&gt; on line &lt;b&gt;8&lt;/b&gt;&lt;/font&gt;&lt;br&gt;&lt;br&gt;Cookieの値：&lt;font color=&quot;#0000ff&quot;&gt;Cookieに保存した値です&lt;/font&gt;&lt;/pre&gt;" style="shape=callout;whiteSpace=wrap;html=1;perimeter=calloutPerimeter;flipV=1;align=left;shadow=1;" parent="1" vertex="1">
          <mxGeometry x="129" y="530" width="510" height="170" as="geometry" />
        </mxCell>
        <mxCell id="2lYenDMfA8N6YShKFMY3-11" value="$valueとcookieの内容を作って値を保存" style="shape=callout;whiteSpace=wrap;html=1;perimeter=calloutPerimeter;size=50;position=0.57;shadow=1;" parent="1" vertex="1">
          <mxGeometry x="489" y="50" width="230" height="120" as="geometry" />
        </mxCell>
        <mxCell id="2lYenDMfA8N6YShKFMY3-13" value="ページ遷移を挟むと、&lt;br&gt;&lt;font color=&quot;#ff3333&quot;&gt;$valueの内容は消えた（undefined）&lt;/font&gt;のに対して、&lt;font color=&quot;#0000ff&quot;&gt;cookieの内容は引き継がれた&lt;/font&gt;" style="shape=callout;whiteSpace=wrap;html=1;perimeter=calloutPerimeter;position2=0.17;size=50;position=0.5;shadow=1;" parent="1" vertex="1">
          <mxGeometry x="554" y="460" width="220" height="130" as="geometry" />
        </mxCell>
        <mxCell id="2lYenDMfA8N6YShKFMY3-14" value="ページ遷移すると、&lt;br&gt;変数（$value）は消滅したのに対して、&lt;br&gt;cookieに保存した内容は保たれていたことがわかる。" style="text;html=1;align=left;verticalAlign=top;whiteSpace=wrap;rounded=0;" parent="1" vertex="1">
          <mxGeometry x="129" y="720" width="300" height="50" as="geometry" />
        </mxCell>
        <mxCell id="VNZdDQ8VdF-ExNJ2Fo59-1" value="メモ：&lt;br&gt;Undefinedエラーは、その値が存在しないことを示します。&lt;br&gt;特にprintなどをするとエラーがでる場合、値が存在しないことをエラー文で確認できます。" style="shape=card;whiteSpace=wrap;html=1;align=left;shadow=1;" vertex="1" parent="1">
          <mxGeometry x="659" y="565" width="150" height="180" as="geometry" />
        </mxCell>
      </root>
    </mxGraphModel>
  </diagram>
</mxfile>
